<?xml version="1.0" encoding="iso-8859-1"?>
<!-- Uploaded to: SVG Repo, www.svgrepo.com, Generator: SVG Repo Mixer Tools -->
<svg height="800px" width="800px" version="1.1" id="Layer_1" xmlns="http://www.w3.org/2000/svg" xmlns:xlink="http://www.w3.org/1999/xlink" 
	 viewBox="0 0 512 512" xml:space="preserve">
<g>
	<path style="fill:#8AD5DD;" d="M182.432,125.272c-2.248,6.36-5.16,12.384-8.656,18.032l157.184,77.56
		c2.52-6.248,5.656-12.176,9.392-17.664L182.432,125.272z"/>
	<path style="fill:#8AD5DD;" d="M181.992,385.528l155.344-81.632c-3.4-5.712-6.224-11.784-8.36-18.2l-155.864,81.912
		C176.688,373.2,179.656,379.208,181.992,385.528z"/>
</g>
<path style="fill:#2D2D2D;" d="M418.056,349.944c51.88,0,93.944-42.056,93.944-93.944s-42.064-93.944-93.944-93.944
	c-32.304,0-60.784,16.312-77.696,41.136c-3.744,5.496-6.872,11.424-9.392,17.664c-4.392,10.864-6.864,22.704-6.864,35.144
	c0,10.392,1.752,20.352,4.872,29.696c2.136,6.408,4.968,12.488,8.36,18.2C353.712,331.432,383.688,349.944,418.056,349.944z
	 M376.704,256c0-22.832,18.512-41.344,41.344-41.344s41.344,18.512,41.344,41.344s-18.512,41.344-41.344,41.344
	S376.704,278.832,376.704,256z"/>
<circle style="fill:#DB2B42;" cx="418.08" cy="256" r="41.344"/>
<path style="fill:#2D2D2D;" d="M187.896,93.944C187.896,42.064,145.832,0,93.944,0S0,42.064,0,93.944
	c0,51.888,42.064,93.944,93.944,93.944c33.76,0,63.272-17.864,79.832-44.592c3.496-5.648,6.4-11.672,8.656-18.032
	C185.904,115.456,187.896,104.944,187.896,93.944z M93.944,135.288c-22.832,0-41.344-18.512-41.344-41.344S71.112,52.6,93.944,52.6
	s41.344,18.512,41.344,41.344S116.784,135.288,93.944,135.288z"/>
<circle style="fill:#DB2B42;" cx="93.944" cy="93.944" r="41.344"/>
<path style="fill:#2D2D2D;" d="M93.944,324.104C42.064,324.104,0,366.168,0,418.056S42.064,512,93.944,512
	s93.944-42.064,93.944-93.944c0-11.448-2.152-22.376-5.904-32.52c-2.336-6.32-5.304-12.328-8.88-17.92
	C156.432,341.48,127.248,324.104,93.944,324.104z M135.296,418.056c0,22.832-18.512,41.344-41.344,41.344
	s-41.344-18.512-41.344-41.344s18.512-41.344,41.344-41.344S135.296,395.216,135.296,418.056z"/>
<circle style="fill:#DB2B42;" cx="93.944" cy="418.08" r="41.344"/>
</svg>